<?xml version="1.0" encoding="utf-8"?>
<!-- Generator: Adobe Illustrator 22.0.0, SVG Export Plug-In . SVG Version: 6.00 Build 0)  -->
<svg version="1.1" id="Capa_1" xmlns="http://www.w3.org/2000/svg" xmlns:xlink="http://www.w3.org/1999/xlink" x="0px" y="0px"
	 viewBox="0 0 595.3 841.9" style="enable-background:new 0 0 595.3 841.9;" xml:space="preserve">
<style type="text/css">
	.st0{fill:#165F8E;}
</style>
<g>
	<path class="st0" d="M437,421.4h-114V635h6.2V427.6h110.4l80.6-80.6c0.3,0,0.5,0.2,0.8,0.2c3,0,5.5-2.5,5.5-5.5
		c0-3-2.5-5.5-5.5-5.5c-3,0-5.5,2.5-5.5,5.5c0,0.4,0.1,0.7,0.2,1.1L437,421.4z"/>
	<path class="st0" d="M341.4,631.9V450.5h95.5c1,1.4,2.6,2.4,4.4,2.4c3,0,5.5-2.5,5.5-5.5s-2.5-5.5-5.5-5.5c-1.9,0-3.4,1-4.4,2.4
		H335.2V638h214.3v-6.2H341.4z"/>
	<path class="st0" d="M294.7,396.8l-19.7-19.7V221.6h3v-12.2h-3V175h-68.6v-64.1c1.9-1.1,3.2-3.1,3.2-5.5c0-3.5-2.8-6.3-6.3-6.3
		s-6.3,2.8-6.3,6.3c0,2.4,1.3,4.4,3.2,5.5v70.3h68.6v28.2h-3v12.2h3V371l-51.6-51.6v-73.6c1.9-1.1,3.2-3.1,3.2-5.5
		c0-3.5-2.8-6.3-6.3-6.3c-3.5,0-6.3,2.8-6.3,6.3c0,2.4,1.3,4.4,3.2,5.5V322l77.4,77.4v293.8l58.3,58.3l4.4-4.4l-56.5-56.5V396.8z
		 M203.4,102.6c1.6,0,2.9,1.3,2.9,2.9c0,1.6-1.3,2.9-2.9,2.9c-1.6,0-2.9-1.3-2.9-2.9C200.6,103.9,201.9,102.6,203.4,102.6z
		 M214.2,237.5c1.6,0,2.9,1.3,2.9,2.9s-1.3,2.9-2.9,2.9c-1.6,0-2.9-1.3-2.9-2.9S212.7,237.5,214.2,237.5z"/>
	<path class="st0" d="M70.6,631.9v6.2h189.9V437.9l-54.8-54.8H57.3c-1-2-3-3.4-5.4-3.4c-3.3,0-6.1,2.7-6.1,6.1
		c0,3.3,2.7,6.1,6.1,6.1c2,0,3.8-1,4.9-2.5h146.2l51.2,51.2v191.4H70.6z"/>
	<path class="st0" d="M288,100.7v203.8l14,14v345l23.6,23.6c-0.1,0.5-0.3,1-0.3,1.5c0,3,2.5,5.5,5.5,5.5c3,0,5.5-2.5,5.5-5.5
		c0-3-2.5-5.5-5.5-5.5c-0.1,0-0.3,0.1-0.4,0.1L308.1,661V369.2l136.5-136.5l0.9-0.9v-43.5c1.4-1,2.4-2.6,2.4-4.4
		c0-3-2.5-5.5-5.5-5.5c-3,0-5.5,2.5-5.5,5.5c0,1.9,1,3.4,2.4,4.4v40.9L308.1,360.5V186.1l83.4-83.4c0.3,0.1,0.6,0.2,0.9,0.2
		c3,0,5.5-2.5,5.5-5.5c0-3-2.5-5.5-5.5-5.5c-3,0-5.5,2.5-5.5,5.5c0,0.3,0.1,0.6,0.2,0.9L302,183.5v126.3l-7.8-7.8V100.7
		c1.4-1,2.4-2.6,2.4-4.4c0-3-2.5-5.5-5.5-5.5c-3,0-5.5,2.5-5.5,5.5C285.5,98.2,286.5,99.7,288,100.7z"/>
	<path class="st0" d="M194.2,325.4h-3V214.2c1.4-1,2.4-2.6,2.4-4.4c0-3-2.5-5.5-5.5-5.5c-3,0-5.5,2.5-5.5,5.5c0,1.9,1,3.4,2.4,4.4
		v111.2h-3v12.2h7.8l79.1,79.1v240.5l-76.2,76.2l0.1,0.1c-0.4-0.1-0.9-0.2-1.3-0.2c-3.5,0-6.3,2.8-6.3,6.3s2.8,6.3,6.3,6.3
		s6.3-2.8,6.3-6.3c0-0.8-0.2-1.5-0.4-2.2l77.8-77.8V414.1l-80.9-80.9V325.4z M191.4,742.5c-1.6,0-2.9-1.3-2.9-2.9s1.3-2.9,2.9-2.9
		s2.9,1.3,2.9,2.9S193,742.5,191.4,742.5z"/>
	<path class="st0" d="M434.3,297.2v7.9L330.9,408.4h97.4c1.1,1.9,3.1,3.2,5.5,3.2c3.5,0,6.3-2.8,6.3-6.3s-2.8-6.3-6.3-6.3
		c-2.4,0-4.4,1.3-5.5,3.2h-82.4l92.9-92.9h7.8v-3h35v-6.2h-35v-3H434.3z M433.7,402.5c1.6,0,2.9,1.3,2.9,2.9c0,1.6-1.3,2.9-2.9,2.9
		c-1.6,0-2.9-1.3-2.9-2.9C430.9,403.8,432.1,402.5,433.7,402.5z"/>
	<path class="st0" d="M244.7,648.8l-22.9,22.9H198c-0.8-0.9-2-1.5-3.3-1.5c-2.5,0-4.6,2.1-4.6,4.6c0,2.5,2.1,4.6,4.6,4.6
		c1.3,0,2.5-0.6,3.3-1.5h26.3l35.3-35.3h-94.9c-1.1-1.9-3.1-3.2-5.5-3.2c-3.5,0-6.3,2.8-6.3,6.3c0,3.5,2.8,6.3,6.3,6.3
		c2.4,0,4.4-1.3,5.5-3.2H244.7z M159.3,648.6c-1.6,0-2.9-1.3-2.9-2.9c0-1.6,1.3-2.9,2.9-2.9s2.9,1.3,2.9,2.9
		C162.1,647.3,160.8,648.6,159.3,648.6z"/>
	<path class="st0" d="M432.6,671.2c-3,0-5.5,2.5-5.5,5.5c0,0.7,0.2,1.3,0.4,1.9l-31.9,31.9l-76.7-76.7V387.4l151.8-151.8l0.9-0.9
		V140h27.3c1.1,1.9,3.1,3.2,5.5,3.2c3.5,0,6.3-2.8,6.3-6.3s-2.8-6.3-6.3-6.3c-2.4,0-4.4,1.3-5.5,3.2h-33.4v98.4L313.6,384l-0.9,0.9
		v251.4l82.9,82.9l37-37c3,0,5.5-2.5,5.5-5.5C438.1,673.6,435.6,671.2,432.6,671.2z M504.3,134c1.6,0,2.9,1.3,2.9,2.9
		s-1.3,2.9-2.9,2.9c-1.6,0-2.9-1.3-2.9-2.9S502.7,134,504.3,134z"/>
	<path class="st0" d="M356.4,649.8c-2.5,0-4.6,2.1-4.6,4.6c0,2.5,2.1,4.6,4.6,4.6c0.1,0,0.1,0,0.2,0l30.9,30.9l41.6-41.6H389v6.2
		h25.2l-26.7,26.7L361,654.5c0-0.1,0-0.1,0-0.2C361,651.8,358.9,649.8,356.4,649.8z"/>
</g>
</svg>
